<svg width="14" height="14" viewBox="0 0 14 14" fill="none" xmlns="http://www.w3.org/2000/svg">
<path d="M12.4434 0C13.3025 0 13.999 0.696554 13.999 1.55566V12.4443C13.999 13.3034 13.3025 14 12.4434 14H1.55469C0.695578 14 -0.000976562 13.3034 -0.000976562 12.4443V1.55566C-0.000976563 0.696554 0.695578 0 1.55469 0H12.4434ZM2.14453 12.0557H4.23145V5.31445H2.14453V12.0557ZM9.60156 5.1084C8.17113 5.1084 7.56836 6.22266 7.56836 6.22266V5.31445H5.56641V12.0557H7.56836V8.5166C7.56848 7.56873 8.00559 7.00488 8.84082 7.00488C9.60836 7.00505 9.97646 7.54685 9.97656 8.5166V12.0557H12.0547V7.78809C12.0547 5.98252 11.0311 5.10858 9.60156 5.1084ZM3.17773 1.94434C2.49588 1.94447 1.94336 2.50166 1.94336 3.18848C1.94349 3.87518 2.49596 4.4315 3.17773 4.43164C3.85963 4.43164 4.41198 3.87527 4.41211 3.18848C4.41211 2.50157 3.85971 1.94434 3.17773 1.94434Z" fill="#4B4B4E"/>
</svg>
