<svg width="67" height="17" viewBox="0 0 67 17" fill="none" xmlns="http://www.w3.org/2000/svg">
<path d="M6.72723 8.48051L14.6965 14.4083C15.7786 15.2131 15.205 16.9219 13.8528 16.9219H9.00186C8.2063 16.9219 7.80851 16.9219 7.50462 16.7682C7.23731 16.633 7.01996 16.4174 6.88372 16.1521C6.72884 15.8505 6.72875 15.4557 6.72858 14.6661L6.72723 8.48051Z" fill="#FAFAF9"/>
<path d="M12.7083 0.567979C13.5237 -0.511143 15.2539 0.0612526 15.2539 1.41015V6.14737C15.2539 6.95737 15.2539 7.36237 15.0952 7.67204C14.9556 7.94443 14.7328 8.16606 14.4587 8.30524C14.147 8.46347 13.739 8.46441 12.9229 8.46628L6.72907 8.48051L12.7083 0.567979Z" fill="#FAFAF9"/>
<path d="M0 1.88021C0 1.22207 0 0.893005 0.129048 0.641632C0.242563 0.420517 0.423692 0.240745 0.646476 0.128081C0.899748 0 1.2313 0 1.8944 0H4.83467C5.49778 0 5.82933 0 6.0826 0.128081C6.30538 0.240745 6.48651 0.420517 6.60003 0.641632C6.72907 0.893005 6.72907 1.22207 6.72907 1.88021V8.48051L1.41317 16.6499C0.997777 17.2883 0 16.9963 0 16.2364V1.88021Z" fill="#FAFAF9"/>
<path d="M23.1953 15.7746V1.65612H25.7657V8.14317H25.9389L31.4745 1.65612H34.6129L29.1258 7.99151L34.6614 15.7746H31.5715L27.3384 9.72185L25.7657 11.5694V15.7746H23.1953Z" fill="#FAFAF9"/>
<path d="M38.5697 15.9883C37.8953 15.9883 37.288 15.8688 36.7476 15.6298C36.2118 15.3862 35.7869 15.0278 35.4728 14.5544C35.1633 14.081 35.0086 13.4973 35.0086 12.8034C35.0086 12.2059 35.1194 11.7119 35.3411 11.3212C35.5628 10.9306 35.8654 10.618 36.2487 10.3836C36.6321 10.1493 37.0639 9.97232 37.5443 9.85283C38.0293 9.72874 38.5304 9.63912 39.0477 9.58397C39.6712 9.51963 40.177 9.46218 40.565 9.41163C40.953 9.35648 41.2347 9.27375 41.4102 9.16345C41.5903 9.04855 41.6804 8.87161 41.6804 8.63263V8.59127C41.6804 8.07193 41.5257 7.6698 41.2162 7.38485C40.9068 7.09991 40.4611 6.95744 39.8791 6.95744C39.2648 6.95744 38.7775 7.09072 38.4172 7.35728C38.0616 7.62384 37.8214 7.93865 37.6967 8.30173L35.355 7.97082C35.5398 7.3274 35.8446 6.78969 36.2695 6.35768C36.6944 5.92107 37.2141 5.59477 37.8284 5.37876C38.4427 5.15816 39.1216 5.04786 39.8652 5.04786C40.3779 5.04786 40.8883 5.10761 41.3964 5.2271C41.9044 5.34659 42.3686 5.54421 42.7889 5.81996C43.2092 6.09112 43.5464 6.46109 43.8004 6.92986C44.0591 7.39864 44.1884 7.98461 44.1884 8.68778V15.7746H41.7774V14.32H41.6943C41.5418 14.6141 41.3271 14.8899 41.0499 15.1473C40.7774 15.4 40.4333 15.6045 40.0177 15.7608C39.6066 15.9125 39.1239 15.9883 38.5697 15.9883ZM39.2209 14.1545C39.7244 14.1545 40.1608 14.0557 40.5303 13.8581C40.8998 13.6559 41.1839 13.3893 41.3825 13.0584C41.5857 12.7275 41.6873 12.3668 41.6873 11.9761V10.7283C41.6088 10.7927 41.4749 10.8524 41.2855 10.9076C41.1008 10.9627 40.8929 11.011 40.662 11.0523C40.431 11.0937 40.2024 11.1305 39.9761 11.1626C39.7498 11.1948 39.5535 11.2224 39.3872 11.2454C39.0131 11.2959 38.6782 11.3787 38.3826 11.4935C38.087 11.6084 37.8538 11.7693 37.6829 11.9761C37.512 12.1783 37.4265 12.4403 37.4265 12.762C37.4265 13.2216 37.5951 13.5686 37.9323 13.803C38.2694 14.0374 38.699 14.1545 39.2209 14.1545Z" fill="#FAFAF9"/>
<path d="M45.9299 15.7746V5.18574H48.4379V15.7746H45.9299ZM47.1908 3.68289C46.7936 3.68289 46.4518 3.55191 46.1654 3.28994C45.8791 3.02338 45.7359 2.70397 45.7359 2.33171C45.7359 1.95485 45.8791 1.63544 46.1654 1.37347C46.4518 1.10691 46.7936 0.973633 47.1908 0.973633C47.5926 0.973633 47.9344 1.10691 48.2162 1.37347C48.5025 1.63544 48.6457 1.95485 48.6457 2.33171C48.6457 2.70397 48.5025 3.02338 48.2162 3.28994C47.9344 3.55191 47.5926 3.68289 47.1908 3.68289Z" fill="#FAFAF9"/>
<path d="M50.2365 15.7746V5.18574H52.6683V6.95054H52.7791C52.9731 6.3393 53.3057 5.86822 53.7768 5.53732C54.2525 5.20182 54.7952 5.03407 55.4049 5.03407C55.5435 5.03407 55.6982 5.04097 55.8691 5.05475C56.0446 5.06395 56.1901 5.08003 56.3056 5.10301V7.39864C56.1993 7.36187 56.0307 7.3297 55.7998 7.30213C55.5735 7.26996 55.3541 7.25387 55.1416 7.25387C54.6844 7.25387 54.2733 7.35268 53.9084 7.5503C53.5481 7.74333 53.2641 8.01219 53.0562 8.35688C52.8484 8.70157 52.7445 9.09911 52.7445 9.5495V15.7746H50.2365Z" fill="#FAFAF9"/>
<path d="M61.5909 15.9814C60.5516 15.9814 59.651 15.7539 58.8889 15.2989C58.1268 14.8439 57.5356 14.2074 57.1153 13.3893C56.6996 12.5713 56.4917 11.6153 56.4917 10.5215C56.4917 9.42771 56.6996 8.46947 57.1153 7.64682C57.5356 6.82416 58.1268 6.18533 58.8889 5.73034C59.651 5.27536 60.5516 5.04786 61.5909 5.04786C62.6301 5.04786 63.5307 5.27536 64.2928 5.73034C65.0549 6.18533 65.6438 6.82416 66.0595 7.64682C66.4798 8.46947 66.69 9.42771 66.69 10.5215C66.69 11.6153 66.4798 12.5713 66.0595 13.3893C65.6438 14.2074 65.0549 14.8439 64.2928 15.2989C63.5307 15.7539 62.6301 15.9814 61.5909 15.9814ZM61.6047 13.9822C62.1682 13.9822 62.6393 13.8282 63.0181 13.5203C63.3968 13.2078 63.6785 12.7896 63.8633 12.2657C64.0527 11.7417 64.1474 11.1581 64.1474 10.5146C64.1474 9.86662 64.0527 9.28064 63.8633 8.75672C63.6785 8.22819 63.3968 7.80767 63.0181 7.49515C62.6393 7.18263 62.1682 7.02638 61.6047 7.02638C61.0274 7.02638 60.547 7.18263 60.1637 7.49515C59.7849 7.80767 59.5009 8.22819 59.3115 8.75672C59.1267 9.28064 59.0344 9.86662 59.0344 10.5146C59.0344 11.1581 59.1267 11.7417 59.3115 12.2657C59.5009 12.7896 59.7849 13.2078 60.1637 13.5203C60.547 13.8282 61.0274 13.9822 61.6047 13.9822Z" fill="#FAFAF9"/>
</svg>
