<svg width="351" height="394" viewBox="0 0 351 394" fill="none" xmlns="http://www.w3.org/2000/svg">
<path d="M154.898 197.011L337.784 334.074C362.616 352.684 349.454 392.193 318.422 392.193H207.098C188.841 392.193 179.712 392.193 172.738 388.64C166.604 385.515 161.616 380.528 158.489 374.395C154.935 367.421 154.933 358.293 154.929 340.035L154.898 197.011Z" fill="#FAFAF9"/>
<path d="M292.156 14.0567C310.87 -10.8949 350.575 2.34012 350.575 33.5296V143.064C350.575 161.793 350.575 171.158 346.933 178.318C343.73 184.616 338.617 189.741 332.326 192.959C325.174 196.617 315.81 196.639 297.081 196.682L154.94 197.011L292.156 14.0567Z" fill="#FAFAF9"/>
<path d="M0.515869 44.3982C0.515869 29.1807 0.515869 21.572 3.47738 15.7597C6.08241 10.6471 10.2391 6.49036 15.3518 3.88534C21.1641 0.923828 28.7728 0.923828 43.9902 0.923828H111.466C126.684 0.923828 134.292 0.923828 140.105 3.88534C145.217 6.49036 149.374 10.6471 151.979 15.7597C154.94 21.572 154.94 29.1807 154.94 44.3982V197.011L32.9466 385.905C23.4137 400.666 0.515869 393.914 0.515869 376.343V44.3982Z" fill="#FAFAF9"/>
</svg>
