<svg width="20" height="14" viewBox="0 0 20 14" fill="none" xmlns="http://www.w3.org/2000/svg">
<path d="M9.99902 0C9.99902 0 16.253 -0.000109341 17.8125 0.417969C18.6735 0.648449 19.3506 1.32552 19.5811 2.18652C19.9975 3.74566 19.999 7 19.999 7C19.999 7.00072 19.9991 10.2545 19.5811 11.8135C19.3506 12.6745 18.6735 13.3516 17.8125 13.582C16.253 14.0001 9.99902 14 9.99902 14C9.93645 14 3.73818 13.998 2.18652 13.582C1.32552 13.3516 0.648449 12.6745 0.417969 11.8135C-5.76058e-05 10.2545 5.13224e-09 7.00072 0 7C0 7 -0.000110841 3.74566 0.417969 2.18652C0.648449 1.32552 1.32552 0.648449 2.18652 0.417969C3.73817 0.00200243 9.93645 1.06119e-05 9.99902 0ZM7.99805 10L13.1934 7L7.99805 4.00098V10Z" fill="#4B4B4E"/>
</svg>
