<svg width="798" height="798" viewBox="0 0 798 798" fill="none" xmlns="http://www.w3.org/2000/svg">
<rect width="798" height="798" fill="#0C0C0D"/>
<path d="M383.898 399.011L566.784 536.074C591.616 554.684 578.454 594.193 547.422 594.193H436.098C417.841 594.193 408.712 594.193 401.738 590.64C395.604 587.515 390.616 582.528 387.489 576.395C383.935 569.421 383.933 560.293 383.929 542.035L383.898 399.011Z" fill="#FAFAF9"/>
<path d="M521.156 216.057C539.87 191.105 579.575 204.34 579.575 235.53V345.064C579.575 363.793 579.575 373.158 575.933 380.318C572.729 386.616 567.617 391.74 561.326 394.959C554.174 398.617 544.81 398.639 526.081 398.682L383.94 399.011L521.156 216.057Z" fill="#FAFAF9"/>
<path d="M229.516 246.398C229.516 231.181 229.516 223.572 232.477 217.76C235.082 212.647 239.239 208.49 244.352 205.885C250.164 202.924 257.773 202.924 272.99 202.924H340.466C355.683 202.924 363.292 202.924 369.104 205.885C374.217 208.49 378.374 212.647 380.979 217.76C383.94 223.572 383.94 231.181 383.94 246.398V399.011L261.946 587.905C252.413 602.666 229.516 595.914 229.516 578.343V246.398Z" fill="#FAFAF9"/>
</svg>
