<svg width="22" height="12" viewBox="0 0 22 12" fill="none" xmlns="http://www.w3.org/2000/svg">
<path d="M4.7521 5.38653C4.75937 5.40669 4.76301 5.41677 4.76444 5.42712C4.76572 5.4363 4.76571 5.44561 4.76442 5.45479C4.76296 5.46513 4.75931 5.47521 4.75201 5.49535L2.70377 11.1445C2.68999 11.1825 2.6831 11.2015 2.67094 11.2155C2.6602 11.2279 2.64658 11.2375 2.63129 11.2433C2.61397 11.25 2.59376 11.25 2.55335 11.25H0.735661C0.656684 11.25 0.617196 11.25 0.592101 11.2334C0.570155 11.2189 0.554818 11.1963 0.549417 11.1705C0.543241 11.1411 0.55781 11.1044 0.58695 11.031L3.68011 3.23901C3.72842 3.11733 3.75257 3.05649 3.78644 3.03938C3.81578 3.02456 3.85054 3.02512 3.8794 3.04086C3.91271 3.05903 3.93492 3.12061 3.97933 3.24377L4.7521 5.38653Z" fill="#4B4B4E"/>
<path d="M10.1338 8.67978C10.1394 8.69392 10.153 8.70323 10.1682 8.70323C10.1839 8.70323 10.1979 8.69323 10.203 8.67835L12.8836 0.877161C12.8969 0.838297 12.9036 0.818865 12.9158 0.80451C12.9265 0.791832 12.9402 0.782031 12.9557 0.775992C12.9732 0.769154 12.9938 0.769154 13.0349 0.769154H14.6587C14.7011 0.769154 14.7223 0.769154 14.7402 0.776351C14.7561 0.782704 14.77 0.793001 14.7807 0.806262C14.7929 0.821283 14.7991 0.841557 14.8116 0.882106L17.2085 8.67288C17.214 8.69092 17.2307 8.70323 17.2496 8.70323C17.2692 8.70323 17.2863 8.68992 17.2912 8.6709L19.2874 0.870333C19.2984 0.82729 19.3039 0.805768 19.316 0.789752C19.3267 0.775619 19.3409 0.764573 19.3573 0.757742C19.3758 0.75 19.398 0.75 19.4424 0.75H21.2849C21.3578 0.75 21.3943 0.75 21.4186 0.765205C21.4399 0.778522 21.4554 0.799368 21.462 0.823598C21.4696 0.851265 21.4591 0.886171 21.4382 0.955983L18.3836 11.136C18.3714 11.1769 18.3652 11.1973 18.3531 11.2125C18.3424 11.2259 18.3284 11.2363 18.3125 11.2427C18.2945 11.25 18.2731 11.25 18.2304 11.25H16.437C16.3953 11.25 16.3745 11.25 16.3568 11.243C16.3411 11.2368 16.3273 11.2268 16.3166 11.2139C16.3044 11.1992 16.2979 11.1794 16.2849 11.1398L13.9789 4.10602C13.9338 3.9683 13.9112 3.89943 13.8769 3.88041C13.8472 3.86395 13.8112 3.86366 13.7813 3.87964C13.7467 3.89812 13.723 3.96661 13.6757 4.1036L11.2427 11.1423C11.2293 11.181 11.2226 11.2004 11.2104 11.2147C11.1997 11.2274 11.186 11.2372 11.1705 11.2432C11.153 11.25 11.1325 11.25 11.0915 11.25H9.1033C9.06289 11.25 9.04268 11.25 9.02536 11.2433C9.01006 11.2375 8.99645 11.2279 8.98571 11.2155C8.97355 11.2015 8.96666 11.1825 8.95288 11.1445L7.36969 6.77803L5.27229 0.964298C5.24627 0.892176 5.23326 0.856116 5.23997 0.827312C5.24584 0.802108 5.26125 0.780163 5.28297 0.766087C5.30779 0.75 5.34612 0.75 5.42279 0.75H6.92798C6.96741 0.75 6.98713 0.75 7.00414 0.756395C7.01917 0.762044 7.03262 0.77123 7.04335 0.783176C7.0555 0.796696 7.06267 0.815064 7.07702 0.8518L10.1338 8.67978Z" fill="#4B4B4E"/>
</svg>
