<svg width="926" height="228" viewBox="0 0 926 228" fill="none" xmlns="http://www.w3.org/2000/svg">
<path d="M89.1767 113.267L194.818 192.439C209.162 203.189 201.559 226.011 183.634 226.011H119.329C108.783 226.011 103.51 226.011 99.4819 223.959C95.9383 222.154 93.0572 219.273 91.2512 215.73C89.1981 211.702 89.1969 206.429 89.1946 195.883L89.1767 113.267Z" fill="#FAFAF9"/>
<path d="M168.462 7.58602C179.272 -6.82691 202.207 0.8181 202.207 18.8343V82.1053C202.207 92.9238 202.207 98.3331 200.103 102.469C198.252 106.107 195.299 109.067 191.665 110.926C187.534 113.04 182.125 113.052 171.307 113.077L89.2012 113.267L168.462 7.58602Z" fill="#FAFAF9"/>
<path d="M0 25.1124C0 16.3222 0 11.9271 1.71068 8.56974C3.21543 5.61649 5.61649 3.21543 8.56974 1.71068C11.9271 0 16.3222 0 25.1124 0H64.0888C72.879 0 77.274 0 80.6314 1.71068C83.5847 3.21543 85.9857 5.61649 87.4905 8.56974C89.2012 11.9271 89.2012 16.3222 89.2012 25.1124V113.267L18.7331 222.379C13.2266 230.905 0 227.005 0 216.856V25.1124Z" fill="#FAFAF9"/>
<path d="M318.613 215.827V17.2924H354.486V108.514H356.904L434.162 17.2924H477.965L401.383 106.381L478.642 215.827H435.516L376.436 130.713L354.486 156.693V215.827H318.613Z" fill="#FAFAF9"/>
<path d="M533.188 218.832C523.776 218.832 515.299 217.152 507.757 213.791C500.279 210.366 494.349 205.325 489.965 198.669C485.646 192.012 483.487 183.804 483.487 174.046C483.487 165.644 485.034 158.697 488.128 153.203C491.222 147.71 495.445 143.315 500.795 140.019C506.146 136.723 512.173 134.235 518.877 132.555C525.646 130.81 532.64 129.55 539.86 128.774C548.562 127.87 555.621 127.062 561.036 126.351C566.45 125.575 570.383 124.412 572.832 122.861C575.346 121.245 576.603 118.757 576.603 115.396V114.815C576.603 107.512 574.444 101.857 570.125 97.8502C565.806 93.8433 559.585 91.8399 551.463 91.8399C542.889 91.8399 536.089 93.7141 531.06 97.4625C526.097 101.211 522.745 105.638 521.004 110.743L488.322 106.09C490.9 97.0424 495.155 89.481 501.085 83.4061C507.016 77.2665 514.268 72.6779 522.841 69.6405C531.415 66.5384 540.891 64.9873 551.269 64.9873C558.425 64.9873 565.548 65.8275 572.639 67.5078C579.73 69.1881 586.208 71.967 592.074 75.8447C597.941 79.6577 602.646 84.8602 606.192 91.4521C609.802 98.0441 611.607 106.284 611.607 116.172V215.827H577.957V195.373H576.797C574.669 199.509 571.672 203.386 567.804 207.006C564.001 210.56 559.198 213.436 553.397 215.633C547.66 217.766 540.923 218.832 533.188 218.832ZM542.277 193.046C549.303 193.046 555.395 191.657 560.552 188.878C565.709 186.034 569.674 182.286 572.445 177.632C575.282 172.979 576.7 167.906 576.7 162.413V144.866C575.604 145.771 573.735 146.611 571.092 147.387C568.513 148.162 565.612 148.841 562.389 149.423C559.166 150.004 555.975 150.521 552.817 150.974C549.658 151.426 546.918 151.814 544.598 152.137C539.376 152.848 534.703 154.011 530.577 155.627C526.451 157.243 523.196 159.505 520.811 162.413C518.426 165.256 517.233 168.94 517.233 173.464C517.233 179.927 519.586 184.806 524.292 188.102C528.998 191.398 534.993 193.046 542.277 193.046Z" fill="#FAFAF9"/>
<path d="M635.912 215.827V66.9261H670.915V215.827H635.912ZM653.51 45.793C647.966 45.793 643.196 43.9512 639.199 40.2674C635.203 36.519 633.204 32.0274 633.204 26.7926C633.204 21.4932 635.203 17.0016 639.199 13.3179C643.196 9.5695 647.966 7.69531 653.51 7.69531C659.118 7.69531 663.888 9.5695 667.821 13.3179C671.817 17.0016 673.816 21.4932 673.816 26.7926C673.816 32.0274 671.817 36.519 667.821 40.2674C663.888 43.9512 659.118 45.793 653.51 45.793Z" fill="#FAFAF9"/>
<path d="M696.018 215.827V66.9261H729.957V91.743H731.504C734.212 83.1475 738.853 76.5233 745.428 71.8701C752.068 67.1523 759.642 64.7934 768.151 64.7934C770.085 64.7934 772.245 64.8904 774.63 65.0842C777.08 65.2135 779.11 65.4397 780.722 65.7628V98.0441C779.239 97.5271 776.886 97.0747 773.663 96.6869C770.504 96.2345 767.442 96.0083 764.477 96.0083C758.095 96.0083 752.358 97.3978 747.266 100.177C742.237 102.891 738.273 106.672 735.372 111.519C732.471 116.366 731.021 121.956 731.021 128.29V215.827H696.018Z" fill="#FAFAF9"/>
<path d="M854.487 218.735C839.983 218.735 827.413 215.536 816.776 209.138C806.14 202.74 797.889 193.789 792.023 182.286C786.221 170.782 783.32 157.34 783.32 141.958C783.32 126.577 786.221 113.102 792.023 101.534C797.889 89.9657 806.14 80.9825 816.776 74.5844C827.413 68.1864 839.983 64.9873 854.487 64.9873C868.991 64.9873 881.561 68.1864 892.198 74.5844C902.834 80.9825 911.053 89.9657 916.855 101.534C922.721 113.102 925.654 126.577 925.654 141.958C925.654 157.34 922.721 170.782 916.855 182.286C911.053 193.789 902.834 202.74 892.198 209.138C881.561 215.536 868.991 218.735 854.487 218.735ZM854.68 190.623C862.545 190.623 869.12 188.458 874.406 184.128C879.692 179.733 883.624 173.852 886.203 166.484C888.846 159.117 890.167 150.909 890.167 141.861C890.167 132.749 888.846 124.509 886.203 117.141C883.624 109.709 879.692 103.796 874.406 99.4013C869.12 95.0066 862.545 92.8093 854.68 92.8093C846.623 92.8093 839.918 95.0066 834.568 99.4013C829.282 103.796 825.318 109.709 822.675 117.141C820.096 124.509 818.807 132.749 818.807 141.861C818.807 150.909 820.096 159.117 822.675 166.484C825.318 173.852 829.282 179.733 834.568 184.128C839.918 188.458 846.623 190.623 854.68 190.623Z" fill="#FAFAF9"/>
</svg>
